<?xml version="1.0" encoding="UTF-8"?>
<svg id="Layer_1" data-name="Layer 1" xmlns="http://www.w3.org/2000/svg" version="1.1" viewBox="0 0 512 512">
  <defs>
    <style>
      .cls-1 {
        fill: #5c9269;
        stroke-width: 0px;
      }
    </style>
  </defs>
  <path class="cls-1" d="M90.56,416.21h0c-1.34-2.17-.66-5,1.49-6.36,109.89-69.7,143.43-170.31,127.86-235.02-10.15-42.2-39-68.27-79.14-71.52-47.58-3.82-84.59,17.84-98.97,58.09-13.66,38.22-2.43,81.96,26.13,101.73,49.56,34.3,89.85,22.83,102.05,17.97,2.18-.87,4.67.08,5.77,2.15h0c1.29,2.43.2,5.46-2.36,6.48-14.06,5.57-57.8,17.68-110.73-18.97-32.42-22.45-44.88-69.76-29.6-112.49,15.89-44.42,56.41-68.42,108.46-64.22,43.75,3.55,76.44,32.94,87.43,78.61,16.32,67.83-18.19,172.9-131.95,245.04-2.18,1.38-5.08.7-6.43-1.5Z"/>
  <path class="cls-1" d="M343.22,416.21h0c-1.34-2.17-.66-5,1.49-6.36,109.89-69.7,143.43-170.31,127.86-235.02-10.15-42.2-39-68.27-79.14-71.52-47.58-3.82-84.59,17.84-98.97,58.09-13.66,38.22-2.43,81.96,26.13,101.73,49.56,34.3,89.85,22.83,102.05,17.97,2.18-.87,4.67.08,5.77,2.15h0c1.29,2.43.2,5.46-2.36,6.48-14.06,5.57-57.8,17.68-110.73-18.97-32.42-22.45-44.88-69.76-29.6-112.49,15.89-44.42,56.41-68.42,108.46-64.22,43.75,3.55,76.44,32.94,87.43,78.61,16.32,67.83-18.19,172.9-131.95,245.04-2.18,1.38-5.08.7-6.43-1.5Z"/>
</svg>