
<svg width="10" height="6" viewBox="0 0 10 6" fill="none" xmlns="http://www.w3.org/2000/svg">
<path d="M0.195843 0.193113C-0.0652819 0.449719 -0.0652819 0.863429 0.195843 1.12003L4.6243 5.47185C4.6736 5.5204 4.73216 5.55891 4.79663 5.58519C4.8611 5.61147 4.93021 5.625 5 5.625C5.06979 5.625 5.1389 5.61147 5.20337 5.58519C5.26784 5.55891 5.3264 5.5204 5.3757 5.47185L9.80416 1.12003C10.0653 0.863429 10.0653 0.449719 9.80416 0.193114C9.54303 -0.0634916 9.12204 -0.0634916 8.86091 0.193114L4.99734 3.98459L1.13376 0.187876C0.877964 -0.0634921 0.451638 -0.063492 0.195843 0.193113Z" fill="#002B46"/>
</svg>
