<svg xmlns="http://www.w3.org/2000/svg" xmlns:xlink="http://www.w3.org/1999/xlink" width="20px" height="20px" viewBox="0 0 20 20" version="1.1">
<g id="surface1">
<path style="fill:#CD8973;" d="M 8.21875 9.632812 C 9.539062 9.632812 10.6875 9.160156 11.621094 8.222656 C 12.558594 7.285156 13.035156 6.140625 13.035156 4.816406 C 13.035156 3.492188 12.558594 2.347656 11.621094 1.410156 C 10.6875 0.476562 9.539062 0 8.21875 0 C 6.894531 0 5.746094 0.476562 4.8125 1.410156 C 3.875 2.347656 3.398438 3.492188 3.398438 4.816406 C 3.398438 6.140625 3.875 7.285156 4.8125 8.222656 C 5.746094 9.160156 6.894531 9.632812 8.21875 9.632812 Z M 16.644531 15.378906 C 16.617188 14.988281 16.5625 14.5625 16.484375 14.117188 C 16.402344 13.664062 16.296875 13.234375 16.171875 12.84375 C 16.042969 12.441406 15.867188 12.042969 15.652344 11.660156 C 15.425781 11.261719 15.160156 10.917969 14.863281 10.632812 C 14.550781 10.335938 14.171875 10.097656 13.730469 9.921875 C 13.292969 9.75 12.808594 9.660156 12.285156 9.660156 C 12.082031 9.660156 11.886719 9.746094 11.503906 9.992188 C 11.234375 10.167969 10.960938 10.34375 10.6875 10.519531 C 10.425781 10.6875 10.070312 10.84375 9.632812 10.984375 C 9.207031 11.121094 8.769531 11.191406 8.34375 11.191406 C 7.914062 11.191406 7.480469 11.121094 7.050781 10.984375 C 6.613281 10.84375 6.257812 10.6875 5.996094 10.519531 C 5.695312 10.324219 5.417969 10.148438 5.179688 9.992188 C 4.800781 9.746094 4.601562 9.660156 4.398438 9.660156 C 3.878906 9.660156 3.390625 9.75 2.953125 9.921875 C 2.515625 10.097656 2.132812 10.335938 1.824219 10.632812 C 1.523438 10.917969 1.261719 11.261719 1.035156 11.660156 C 0.816406 12.042969 0.640625 12.441406 0.511719 12.84375 C 0.386719 13.234375 0.285156 13.664062 0.203125 14.117188 C 0.121094 14.5625 0.0664062 14.988281 0.0390625 15.378906 C 0.0117188 15.773438 0 16.167969 0 16.558594 C 0 17.605469 0.332031 18.449219 0.988281 19.074219 C 1.632812 19.6875 2.488281 20 3.527344 20 L 13.15625 20 C 14.199219 20 15.054688 19.6875 15.699219 19.074219 C 16.355469 18.449219 16.6875 17.605469 16.6875 16.558594 C 16.6875 16.15625 16.671875 15.761719 16.644531 15.378906 Z M 16.644531 15.378906 "/>
</g>
</svg>