<svg width="150" height="46" viewBox="0 0 150 46" fill="none" xmlns="http://www.w3.org/2000/svg">
<path d="M47.4429 13.7961C47.3523 13.4727 47.1736 13.181 46.9266 12.9535C46.6796 12.726 46.3742 12.5718 46.0446 12.508C45.7149 12.4442 45.374 12.4734 45.06 12.5924C44.746 12.7113 44.4714 12.9153 44.2667 13.1815C42.0479 16.1045 39.3064 18.5908 36.1812 20.5144L38.2872 16.558C38.3787 16.3913 38.4003 16.1951 38.3473 16.0126C38.2942 15.83 38.1707 15.676 38.0041 15.5844C37.8374 15.4928 37.6412 15.4712 37.4587 15.5243C37.2761 15.5774 37.1221 15.7009 37.0305 15.8675L33.9095 21.7573C31.6175 22.8994 29.1843 23.7329 26.6733 24.2361L38.3217 5.67603L41.4703 7.49889L38.5772 12.9606C38.5318 13.0431 38.5032 13.1337 38.4929 13.2273C38.4826 13.3209 38.4908 13.4156 38.5171 13.506C38.5434 13.5964 38.5872 13.6807 38.6461 13.7542C38.705 13.8277 38.7777 13.8888 38.8603 13.9342C38.9428 13.9795 39.0334 14.0081 39.127 14.0184C39.2206 14.0288 39.3153 14.0205 39.4057 13.9942C39.4961 13.968 39.5804 13.9241 39.6539 13.8652C39.7274 13.8064 39.7885 13.7336 39.8338 13.6511L42.7269 8.18247C43.3918 8.4138 44.1192 8.38781 44.7659 8.10962C45.4126 7.83143 45.9317 7.3212 46.221 6.6794C46.5103 6.03761 46.5488 5.31076 46.3289 4.64199C46.1091 3.97321 45.6468 3.41099 45.0331 3.06602L40.4 0.366248C39.7944 0.0235389 39.0836 -0.0835101 38.4039 0.0656346C37.7242 0.214779 37.1235 0.609616 36.717 1.17441C36.3106 1.73921 36.1269 2.43419 36.2013 3.12606C36.2757 3.81793 36.603 4.45797 37.1203 4.92341L24.8021 24.5675C24.3257 24.6297 23.8424 24.6849 23.359 24.7263C22.6685 21.3913 20.8526 17.4901 19.1402 15.7501C18.4809 15.0919 17.7062 14.5606 16.8547 14.1827C16.6835 14.1067 16.4891 14.1019 16.3143 14.1692C16.1395 14.2365 15.9986 14.3706 15.9226 14.5418C15.8466 14.713 15.8417 14.9074 15.909 15.0822C15.9764 15.257 16.1104 15.3979 16.2816 15.4739C16.9722 15.7851 17.6014 16.2177 18.139 16.7513C19.5959 18.2151 21.2669 21.8056 21.9297 24.7885C20.8871 24.8293 19.843 24.8154 18.8019 24.7471L18.1114 24.0566H19.0642C19.2474 24.0566 19.423 23.9838 19.5525 23.8543C19.682 23.7248 19.7547 23.5492 19.7547 23.3661C19.7547 23.183 19.682 23.0073 19.5525 22.8779C19.423 22.7484 19.2474 22.6756 19.0642 22.6756H16.7028L14.2999 20.2797H16.8823C17.07 20.2797 17.25 20.2051 17.3828 20.0724C17.5155 19.9396 17.5901 19.7596 17.5901 19.5719C17.5901 19.3842 17.5155 19.2042 17.3828 19.0715C17.25 18.9387 17.07 18.8642 16.8823 18.8642H12.8845L10.2399 16.2127C11.1092 15.5304 12.1569 15.1132 13.2573 15.0113C13.3513 15.0054 13.443 14.9804 13.527 14.9377C13.6109 14.8951 13.6852 14.8357 13.7454 14.7633C13.8055 14.6908 13.8502 14.6069 13.8767 14.5165C13.9032 14.4262 13.9109 14.3314 13.8995 14.238C13.8927 14.1439 13.8669 14.0523 13.8234 13.9687C13.7799 13.885 13.7198 13.8112 13.6467 13.7517C13.5736 13.6921 13.4891 13.6482 13.3984 13.6226C13.3076 13.597 13.2126 13.5902 13.1192 13.6027C11.6972 13.7354 10.3455 14.2829 9.23182 15.177L5.66895 11.6418C5.60321 11.576 5.52517 11.5239 5.43928 11.4883C5.35338 11.4527 5.26132 11.4344 5.16836 11.4344C5.07539 11.4344 4.98333 11.4527 4.89743 11.4883C4.81154 11.5239 4.7335 11.576 4.66776 11.6418C4.60202 11.7075 4.54987 11.7856 4.51429 11.8714C4.47872 11.9573 4.4604 12.0494 4.4604 12.1424C4.4604 12.2353 4.47872 12.3274 4.51429 12.4133C4.54987 12.4992 4.60202 12.5772 4.66776 12.643L8.23063 16.2058C7.07804 17.6261 6.50134 19.4277 6.61491 21.2532C5.31858 20.5484 4.07685 19.7475 2.90013 18.8573C2.63192 18.6512 2.31112 18.5248 1.97443 18.4924C1.63773 18.4601 1.29874 18.5232 0.996204 18.6744C0.693671 18.8257 0.439815 19.059 0.263666 19.3478C0.0875179 19.6366 -0.00381168 19.9691 0.000121911 20.3073C-0.000469217 24.9122 1.31459 29.4214 3.79049 33.304C6.26638 37.1867 9.80003 40.2811 13.9754 42.2231C13.6739 42.5408 13.4724 42.9401 13.3957 43.3714C13.3191 43.8026 13.3707 44.2469 13.5442 44.6491C13.7177 45.0513 14.0055 45.3937 14.3718 45.6338C14.7382 45.874 15.1669 46.0013 15.6049 46H32.7219C33.3159 46 33.8856 45.7645 34.3063 45.3452C34.7269 44.9258 34.9641 44.3568 34.966 43.7628C34.9685 43.1947 34.7507 42.6478 34.3583 42.2369C39.5594 39.8199 43.7314 35.6319 46.1284 30.4216C48.5255 25.2113 48.9914 19.3183 47.4429 13.7961ZM37.7762 2.05792C37.8658 1.89539 37.9872 1.75259 38.1332 1.63803C38.2792 1.52347 38.4468 1.43952 38.626 1.39118C38.8051 1.34284 38.9922 1.33111 39.176 1.35669C39.3598 1.38227 39.5366 1.44464 39.6957 1.54006L44.3289 4.26745C44.4884 4.35813 44.6286 4.47935 44.7413 4.62419C44.8541 4.76904 44.9372 4.93467 44.9859 5.11163C45.0347 5.28859 45.048 5.47342 45.0253 5.65556C45.0026 5.8377 44.9443 6.01359 44.8536 6.17318C44.7629 6.33276 44.6417 6.47293 44.4969 6.58567C44.352 6.69841 44.1864 6.78152 44.0094 6.83024C43.6521 6.92866 43.2702 6.88107 42.9479 6.69794L38.2872 4.02579C38.1246 3.93621 37.9818 3.8148 37.8673 3.6688C37.7527 3.5228 37.6688 3.35521 37.6204 3.17604C37.5721 2.99687 37.5604 2.80979 37.5859 2.62599C37.6115 2.44218 37.6739 2.26542 37.7693 2.10625L37.7762 2.05792ZM11.7797 23.4628V19.7549L13.8511 21.8263V24.0359C13.1537 23.8701 12.4633 23.6768 11.7797 23.4628ZM15.2666 23.2418L16.5716 24.5468C16.1297 24.4916 15.6947 24.4156 15.2597 24.3397L15.2666 23.2418ZM9.23873 17.2485L10.3573 18.3394V22.9725C9.60468 22.6894 8.86587 22.3787 8.13396 22.0335C7.95925 21.2035 7.96759 20.3455 8.15839 19.5191C8.34919 18.6927 8.71786 17.9178 9.23873 17.2485ZM32.4526 41.5188H20.4866C20.2989 41.5188 20.1189 41.5933 19.9862 41.7261C19.8535 41.8588 19.7789 42.0388 19.7789 42.2265C19.7789 42.4142 19.8535 42.5942 19.9862 42.727C20.1189 42.8597 20.2989 42.9343 20.4866 42.9343H32.7219C32.8366 42.9238 32.9522 42.9373 33.0614 42.974C33.1706 43.0107 33.2709 43.0697 33.356 43.1474C33.4411 43.225 33.509 43.3195 33.5555 43.4249C33.602 43.5303 33.626 43.6442 33.626 43.7594C33.626 43.8746 33.602 43.9885 33.5555 44.0939C33.509 44.1992 33.4411 44.2938 33.356 44.3714C33.2709 44.4491 33.1706 44.5081 33.0614 44.5448C32.9522 44.5815 32.8366 44.595 32.7219 44.5845H15.6049C15.4902 44.595 15.3746 44.5815 15.2654 44.5448C15.1563 44.5081 15.0559 44.4491 14.9708 44.3714C14.8858 44.2938 14.8178 44.1992 14.7713 44.0939C14.7248 43.9885 14.7008 43.8746 14.7008 43.7594C14.7008 43.6442 14.7248 43.5303 14.7713 43.4249C14.8178 43.3195 14.8858 43.225 14.9708 43.1474C15.0559 43.0697 15.1563 43.0107 15.2654 42.974C15.3746 42.9373 15.4902 42.9238 15.6049 42.9343H17.1792C17.3669 42.9343 17.547 42.8597 17.6797 42.727C17.8124 42.5942 17.887 42.4142 17.887 42.2265C17.887 42.0388 17.8124 41.8588 17.6797 41.7261C17.547 41.5933 17.3669 41.5188 17.1792 41.5188H15.9433C11.677 39.8402 8.01358 36.9185 5.42806 33.1326C2.84253 29.3466 1.45423 24.8711 1.44322 20.2866C1.45002 20.217 1.47522 20.1505 1.51623 20.0939C1.55724 20.0373 1.61257 19.9927 1.67655 19.9646C1.74053 19.9364 1.81085 19.9259 1.88027 19.9339C1.94969 19.942 2.01571 19.9684 2.07156 20.0104C8.6111 24.9528 16.8416 27.1049 24.9634 25.996C33.0852 24.8872 40.4376 20.6076 45.4129 14.093C45.4573 14.0352 45.5168 13.9908 45.5849 13.9649C45.653 13.9389 45.727 13.9324 45.7985 13.946C45.8701 13.9596 45.9365 13.9928 45.9903 14.0419C46.0442 14.091 46.0833 14.1541 46.1034 14.2242C47.6295 19.6566 47.0765 25.4627 44.5525 30.5094C42.0285 35.5561 37.7146 39.4813 32.4526 41.5188Z" fill="#CD8973"/>
<path d="M67.8189 3.8329C68.4328 4.24513 68.9356 4.80247 69.2827 5.45553C69.6454 6.14048 69.8351 6.90379 69.8351 7.67887C69.8351 8.45395 69.6454 9.21726 69.2827 9.90221C68.9358 10.5592 68.4332 11.121 67.8189 11.5386C67.2509 11.9263 66.5801 12.1354 65.8924 12.1394H62.44V15.8679C62.4523 16.0276 62.4324 16.1882 62.3814 16.34C62.3303 16.4919 62.2493 16.6319 62.1431 16.7518C62.0353 16.8599 61.9073 16.9457 61.7663 17.0043C61.6253 17.0628 61.4741 17.0929 61.3214 17.0929C61.1688 17.0929 61.0176 17.0628 60.8766 17.0043C60.7356 16.9457 60.6075 16.8599 60.4998 16.7518C60.2792 16.5115 60.1626 16.1938 60.1752 15.8679V4.43362C60.1724 4.27417 60.2018 4.11578 60.2615 3.96791C60.3212 3.82004 60.4101 3.68571 60.5229 3.57294C60.6357 3.46018 60.77 3.37127 60.9179 3.31154C61.0657 3.25181 61.2241 3.22248 61.3836 3.22528H65.8924C66.5808 3.23123 67.2516 3.44283 67.8189 3.8329ZM66.6381 9.56388C66.8944 9.33727 67.0972 9.05664 67.2319 8.74221C67.3819 8.40899 67.4595 8.04774 67.4595 7.68232C67.4595 7.31691 67.3819 6.95566 67.2319 6.62244C67.0971 6.31205 66.8941 6.03596 66.6381 5.81458C66.4348 5.62591 66.1697 5.51789 65.8924 5.51077H62.44V9.8884H65.8924C66.1729 9.87762 66.4391 9.76178 66.6381 9.56388Z" fill="#CD8973"/>
<path d="M80.5307 6.84294C80.6427 6.9563 80.7305 7.09129 80.7887 7.23968C80.8468 7.38806 80.8742 7.54674 80.869 7.70604V12.7327C80.9048 13.3414 80.8188 13.9511 80.616 14.5261C80.4133 15.1011 80.0979 15.6299 79.6883 16.0815C78.7457 16.8625 77.5601 17.2898 76.336 17.2898C75.112 17.2898 73.9263 16.8625 72.9837 16.0815C72.5767 15.6285 72.2634 15.0993 72.0619 14.5245C71.8604 13.9498 71.7748 13.3408 71.8099 12.7327V7.70604C71.8048 7.54674 71.8321 7.38806 71.8903 7.23968C71.9484 7.09129 72.0362 6.9563 72.1483 6.84294C72.2571 6.72832 72.3892 6.63823 72.5357 6.5787C72.6821 6.51916 72.8396 6.49155 72.9976 6.4977C73.1565 6.49189 73.3149 6.51962 73.4624 6.57911C73.6099 6.63859 73.7433 6.72849 73.8537 6.84294C73.9636 6.95757 74.0494 7.09293 74.1063 7.24113C74.1633 7.38932 74.1901 7.54737 74.1852 7.70604V12.7327C74.1335 13.3775 74.3257 14.0181 74.7237 14.528C74.9344 14.7327 75.1861 14.8903 75.4623 14.9903C75.7385 15.0903 76.0328 15.1304 76.3257 15.108C76.6219 15.1334 76.9202 15.0948 77.2001 14.9947C77.4801 14.8946 77.7353 14.7354 77.9483 14.528C78.3463 14.0181 78.5385 13.3775 78.4869 12.7327V7.70604C78.482 7.54737 78.5088 7.38932 78.5657 7.24113C78.6226 7.09293 78.7085 6.95757 78.8183 6.84294C78.9288 6.72849 79.0621 6.63859 79.2096 6.57911C79.3571 6.51962 79.5155 6.49189 79.6745 6.4977C79.8336 6.49055 79.9924 6.51768 80.1401 6.57724C80.2878 6.63681 80.421 6.72742 80.5307 6.84294Z" fill="#CD8973"/>
<path d="M89.9487 6.63602C90.0721 6.72752 90.173 6.846 90.2436 6.98242C90.3142 7.11884 90.3527 7.2696 90.3561 7.42317C90.3681 7.59082 90.3462 7.75918 90.2916 7.91815C90.237 8.07713 90.1509 8.22347 90.0385 8.34841C89.8376 8.5452 89.567 8.65444 89.2859 8.65222C89.0491 8.64948 88.815 8.60265 88.5954 8.51412L88.333 8.43817C88.1872 8.39583 88.036 8.37489 87.8842 8.37603C87.5303 8.37818 87.1856 8.48906 86.8968 8.69365C86.5584 8.93922 86.2915 9.2705 86.1235 9.65341C85.9109 10.1359 85.8072 10.6592 85.8197 11.1863V15.8677C85.8248 16.027 85.7975 16.1857 85.7393 16.3341C85.6811 16.4825 85.5934 16.6175 85.4813 16.7308C85.3717 16.8444 85.2394 16.9338 85.0932 16.9932C84.9469 17.0527 84.7898 17.0809 84.632 17.0761C84.4733 17.0802 84.3154 17.0517 84.1681 16.9923C84.0208 16.9329 83.8873 16.8439 83.7758 16.7308C83.666 16.6162 83.5801 16.4808 83.5232 16.3326C83.4663 16.1844 83.4395 16.0264 83.4444 15.8677V7.70626C83.4395 7.54759 83.4663 7.38954 83.5232 7.24135C83.5801 7.09315 83.666 6.95779 83.7758 6.84316C83.8863 6.72871 84.0196 6.63882 84.1672 6.57933C84.3147 6.51985 84.4731 6.49211 84.632 6.49792C84.79 6.49177 84.9475 6.51938 85.0939 6.57892C85.2404 6.63845 85.3725 6.72854 85.4813 6.84316C85.5934 6.95652 85.6811 7.09151 85.7393 7.2399C85.7975 7.38828 85.8248 7.54696 85.8197 7.70626V7.96174C86.1187 7.42648 86.574 6.99527 87.1247 6.72578C87.6902 6.44178 88.3147 6.29512 88.9475 6.29769C89.3112 6.28575 89.6669 6.40594 89.9487 6.63602Z" fill="#CD8973"/>
<path d="M100.734 12.3183C100.501 12.515 100.204 12.6204 99.8986 12.6152H93.3667C93.4903 13.3379 93.8763 13.9894 94.4507 14.445C94.9946 14.8895 95.6748 15.1333 96.3772 15.1355C96.8032 15.1495 97.229 15.1007 97.6408 14.9905C97.8931 14.9109 98.1362 14.8044 98.3658 14.6729L98.7317 14.445C98.9444 14.3314 99.1811 14.2699 99.4222 14.2655C99.6878 14.2654 99.9429 14.3695 100.133 14.5554C100.322 14.7413 100.432 14.9942 100.437 15.2598C100.426 15.4535 100.37 15.6419 100.273 15.8099C100.176 15.9778 100.04 16.1205 99.8779 16.2264C99.433 16.5704 98.9303 16.8323 98.3934 16.9998C97.7895 17.2101 97.1547 17.3174 96.5153 17.3174C95.505 17.3432 94.5055 17.1052 93.6153 16.6269C92.8082 16.1881 92.1443 15.5266 91.7026 14.7212C91.2378 13.8757 90.9999 12.9241 91.0122 11.9593C90.983 10.9201 91.2208 9.89073 91.7026 8.96951C92.1353 8.15299 92.7853 7.47196 93.5807 7.00165C94.3355 6.54811 95.1997 6.30936 96.0803 6.31117C96.9506 6.30451 97.8051 6.54387 98.5453 7.00165C99.325 7.48628 99.9689 8.16103 100.416 8.96261C100.875 9.75816 101.113 10.6614 101.107 11.5795C101.099 11.7218 101.062 11.8609 100.998 11.9881C100.934 12.1152 100.844 12.2277 100.734 12.3183ZM93.3874 10.6336H98.5729V10.4955C98.541 10.2154 98.4523 9.94483 98.3122 9.70026C98.1721 9.45568 97.9836 9.24227 97.7581 9.07309C97.2951 8.68153 96.7073 8.46846 96.101 8.47237C95.4548 8.40051 94.8065 8.58757 94.2979 8.99262C93.7893 9.39766 93.4619 9.9877 93.3874 10.6336Z" fill="#CD8973"/>
<path d="M71.1193 39.7855C71.1237 39.9416 71.0959 40.097 71.0377 40.2419C70.9795 40.3868 70.8921 40.5182 70.781 40.6279C70.6806 40.7313 70.5603 40.8133 70.4274 40.8691C70.2945 40.9248 70.1518 40.9532 70.0077 40.9524C69.7754 40.9567 69.5488 40.8811 69.3655 40.7384C69.1644 40.5853 69.0091 40.3799 68.9167 40.1446L67.8879 37.7486H62.0119L60.9831 40.1653C60.9039 40.3983 60.7543 40.601 60.555 40.7453C60.3491 40.8868 60.1024 40.9567 59.8528 40.9442C59.6033 40.9317 59.3648 40.8376 59.174 40.6762C59.0815 40.5749 59.0101 40.4562 58.9639 40.327C58.9176 40.1978 58.8975 40.0607 58.9048 39.9236C58.9062 39.7969 58.9272 39.6711 58.9669 39.5508L63.8969 27.7091C63.9872 27.4592 64.1539 27.2442 64.3733 27.0945C64.5745 26.9537 64.8196 26.89 65.0638 26.915C65.3086 26.9158 65.547 26.9927 65.7462 27.1349C65.9453 27.2772 66.0953 27.4778 66.1755 27.7091L71.0088 39.3091C71.0757 39.4594 71.1132 39.6211 71.1193 39.7855ZM62.9855 35.47H66.9764L64.981 30.8369L62.9855 35.47Z" fill="#CD8973"/>
<path d="M80.8482 30.6092C80.9585 30.7225 81.0451 30.8564 81.1032 31.0034C81.1613 31.1504 81.1896 31.3074 81.1866 31.4654V39.8823C81.1866 41.5993 80.7262 42.8514 79.8056 43.6386C78.7556 44.4672 77.4406 44.8868 76.1046 44.8193C75.6423 44.816 75.1807 44.779 74.7237 44.7088C74.3345 44.6538 73.9525 44.5565 73.5844 44.4188C72.9422 44.1426 72.6177 43.7628 72.6177 43.2726C72.6215 43.1647 72.6401 43.0578 72.673 42.955C72.7288 42.6861 72.872 42.4433 73.0803 42.2645C73.2572 42.1183 73.4792 42.0378 73.7087 42.0366C73.8356 42.0359 73.9617 42.0569 74.0815 42.0988L74.5649 42.2921C74.8016 42.3897 75.0465 42.466 75.2968 42.52C75.5616 42.5816 75.8328 42.6117 76.1046 42.6097C76.8456 42.6722 77.5835 42.4582 78.1761 42.009C78.428 41.7302 78.6194 41.4021 78.7383 41.0456C78.8571 40.6891 78.9008 40.3118 78.8666 39.9376V39.7373C78.4705 40.1879 77.9744 40.5394 77.4181 40.7636C76.8617 40.9879 76.2605 41.0786 75.6627 41.0285C75.021 41.0406 74.389 40.8706 73.8399 40.5383C73.3026 40.2097 72.8749 39.7291 72.6108 39.1573C72.312 38.5451 72.1629 37.8706 72.1758 37.1895V31.4654C72.1712 31.3072 72.1988 31.1497 72.257 31.0025C72.3151 30.8553 72.4026 30.7215 72.5142 30.6092C72.7412 30.3874 73.046 30.2632 73.3634 30.2632C73.6809 30.2632 73.9857 30.3874 74.2127 30.6092C74.3242 30.7215 74.4117 30.8553 74.4699 31.0025C74.5281 31.1497 74.5557 31.3072 74.5511 31.4654V36.5404C74.4887 37.1853 74.6849 37.8285 75.0965 38.3288C75.3123 38.5219 75.5647 38.6697 75.8387 38.7634C76.1127 38.8571 76.4027 38.8948 76.6915 38.8742C76.9848 38.893 77.2787 38.8491 77.5537 38.7455C77.8287 38.642 78.0785 38.4811 78.2866 38.2735C78.6892 37.7891 78.8917 37.1692 78.8527 36.5404V31.4654C78.8484 31.3078 78.8755 31.151 78.9324 31.004C78.9893 30.857 79.0749 30.7228 79.1842 30.6092C79.4132 30.3886 79.7189 30.2653 80.0369 30.2653C80.355 30.2653 80.6606 30.3886 80.8897 30.6092H80.8482Z" fill="#CD8973"/>
<path d="M92.4759 30.6092C92.5852 30.7228 92.6708 30.857 92.7277 31.004C92.7846 31.151 92.8117 31.3078 92.8074 31.4654V36.499C92.8418 37.1069 92.7558 37.7157 92.5543 38.2904C92.3529 38.8651 92.04 39.3943 91.6336 39.8478C90.691 40.6287 89.5053 41.056 88.2813 41.056C87.0572 41.056 85.8716 40.6287 84.929 39.8478C84.5235 39.394 84.2116 38.8645 84.0114 38.2898C83.8111 37.7151 83.7264 37.1065 83.7621 36.499V31.4654C83.7578 31.3078 83.7848 31.151 83.8417 31.004C83.8986 30.857 83.9842 30.7228 84.0935 30.6092C84.3226 30.3885 84.6282 30.2652 84.9463 30.2652C85.2643 30.2652 85.57 30.3885 85.799 30.6092C85.9092 30.7224 85.9959 30.8564 86.054 31.0034C86.1121 31.1503 86.1404 31.3074 86.1373 31.4654V36.499C86.0871 37.1425 86.2765 37.7818 86.669 38.2942C86.8804 38.4998 87.1333 38.658 87.4108 38.758C87.6882 38.858 87.9838 38.8976 88.2778 38.8742C88.5739 38.8974 88.8715 38.8577 89.1512 38.7578C89.4308 38.6578 89.6862 38.4998 89.9005 38.2942C90.293 37.7818 90.4824 37.1425 90.4321 36.499V31.4654C90.4275 31.3072 90.4551 31.1497 90.5133 31.0025C90.5714 30.8553 90.659 30.7215 90.7705 30.6092C90.8796 30.4949 91.0117 30.4051 91.1581 30.3456C91.3045 30.286 91.4618 30.2582 91.6198 30.2639C91.7787 30.2581 91.9371 30.2859 92.0846 30.3453C92.2321 30.4048 92.3655 30.4947 92.4759 30.6092Z" fill="#CD8973"/>
<path d="M101.887 30.4021C102.012 30.4917 102.115 30.6098 102.186 30.7466C102.256 30.8835 102.294 31.0352 102.294 31.1893C102.308 31.357 102.287 31.5258 102.232 31.685C102.178 31.8443 102.091 31.9905 101.977 32.1145C101.878 32.2123 101.76 32.2894 101.631 32.3416C101.502 32.3937 101.364 32.4198 101.224 32.4183C100.988 32.4129 100.754 32.3661 100.534 32.2802L100.265 32.2043C100.121 32.1619 99.9722 32.141 99.8226 32.1421C99.4665 32.1442 99.1196 32.255 98.8283 32.4597C98.4837 32.7005 98.2134 33.033 98.0481 33.4195C97.8298 33.9003 97.7235 34.4245 97.7373 34.9524V39.6476C97.7418 39.8063 97.7149 39.9642 97.658 40.1123C97.6011 40.2605 97.5154 40.3959 97.4059 40.5107C97.2944 40.6238 97.1609 40.7128 97.0136 40.7722C96.8664 40.8316 96.7085 40.8601 96.5497 40.856C96.392 40.86 96.2352 40.8314 96.0891 40.772C95.9429 40.7126 95.8106 40.6236 95.7004 40.5107C95.5887 40.3971 95.5012 40.2621 95.443 40.1138C95.3849 39.9654 95.3573 39.8069 95.3621 39.6476V31.4655C95.3575 31.3073 95.3851 31.1498 95.4433 31.0026C95.5014 30.8554 95.5889 30.7216 95.7004 30.6093C95.8096 30.495 95.9417 30.4051 96.0881 30.3456C96.2345 30.2861 96.3918 30.2583 96.5497 30.264C96.7087 30.2582 96.8671 30.2859 97.0146 30.3454C97.1621 30.4049 97.2955 30.4948 97.4059 30.6093C97.5152 30.7228 97.6008 30.857 97.6577 31.004C97.7146 31.151 97.7417 31.3079 97.7373 31.4655V31.7486C98.0367 31.2094 98.4947 30.7755 99.0493 30.5057C99.6153 30.2238 100.24 30.0795 100.872 30.0845C101.238 30.0614 101.6 30.1745 101.887 30.4021Z" fill="#CD8973"/>
<path d="M113.929 30.5884C114.033 30.6849 114.116 30.8027 114.17 30.9337C114.225 31.0647 114.251 31.2059 114.247 31.3479C114.234 31.5544 114.18 31.7562 114.088 31.9417L110.359 40.1032C110.276 40.3149 110.135 40.499 109.952 40.6348C109.777 40.7694 109.565 40.8465 109.344 40.8558H109.165C108.941 40.8548 108.723 40.7822 108.544 40.6486C108.349 40.5022 108.196 40.3068 108.102 40.0824L104.414 31.921C104.325 31.721 104.278 31.5047 104.276 31.2857C104.283 31.1536 104.316 31.0242 104.374 30.9054C104.432 30.7866 104.514 30.6811 104.615 30.5953C104.723 30.4874 104.853 30.4029 104.995 30.3471C105.138 30.2912 105.29 30.2653 105.443 30.2707C105.687 30.2698 105.926 30.3368 106.134 30.4641C106.344 30.5976 106.508 30.793 106.603 31.0234L109.365 37.2791L112.079 31.0648C112.166 30.8362 112.317 30.6374 112.514 30.4917C112.693 30.3653 112.909 30.3021 113.128 30.3122C113.273 30.3025 113.419 30.3219 113.557 30.3693C113.694 30.4168 113.821 30.4912 113.929 30.5884Z" fill="#CD8973"/>
<path d="M125.129 36.0844C124.897 36.279 124.603 36.3843 124.3 36.3813H117.761C117.888 37.1045 118.276 37.7558 118.852 38.2111C119.394 38.6551 120.072 38.899 120.772 38.9016C121.2 38.916 121.628 38.8672 122.042 38.7566C122.284 38.6765 122.515 38.5699 122.733 38.439L123.106 38.2111C123.318 38.0976 123.555 38.036 123.796 38.0316C123.925 38.0317 124.053 38.058 124.172 38.1091C124.291 38.1601 124.398 38.2348 124.487 38.3285C124.581 38.4169 124.656 38.5239 124.707 38.6427C124.758 38.7616 124.784 38.8896 124.784 39.019C124.776 39.2135 124.721 39.4034 124.625 39.5727C124.529 39.7421 124.394 39.886 124.231 39.9926C123.791 40.3173 123.298 40.5648 122.774 40.7245C122.167 40.9314 121.531 41.0387 120.889 41.0421C119.879 41.066 118.88 40.8281 117.989 40.3516C117.184 39.9099 116.522 39.246 116.084 38.439C115.614 37.5954 115.375 36.6425 115.393 35.6771C115.364 34.6378 115.601 33.6084 116.084 32.6873C116.521 31.8718 117.173 31.1913 117.969 30.7194C118.721 30.2671 119.583 30.0284 120.461 30.0289C121.331 30.0223 122.186 30.2616 122.926 30.7194C123.695 31.1934 124.331 31.8536 124.777 32.639C125.235 33.4345 125.473 34.3377 125.467 35.2559C125.478 35.4107 125.453 35.5658 125.394 35.7095C125.336 35.8531 125.245 35.9814 125.129 36.0844ZM117.782 34.3997H122.975V34.2616C122.944 33.9803 122.855 33.7084 122.715 33.4626C122.575 33.2168 122.386 33.0022 122.16 32.8323C121.692 32.4454 121.103 32.2352 120.496 32.2385C119.85 32.1666 119.201 32.3537 118.693 32.7587C118.184 33.1638 117.857 33.7538 117.782 34.3997Z" fill="#CD8973"/>
<path d="M136.915 26.5353C137.027 26.6504 137.114 26.7867 137.172 26.9361C137.23 27.0855 137.258 27.2451 137.253 27.4053V39.6475C137.257 39.8066 137.228 39.9647 137.17 40.1128C137.112 40.2609 137.026 40.3961 136.915 40.5106C136.805 40.6232 136.672 40.7119 136.526 40.7713C136.38 40.8306 136.223 40.8594 136.066 40.8558C135.909 40.8623 135.754 40.8355 135.608 40.7772C135.463 40.7189 135.332 40.6303 135.223 40.5175C135 40.291 134.874 39.9864 134.871 39.6682C134.5 40.0836 134.046 40.4175 133.539 40.6487C132.985 40.9166 132.379 41.0559 131.764 41.0561C130.891 41.0702 130.032 40.8304 129.292 40.3656C128.54 39.8872 127.933 39.2112 127.538 38.4115C127.099 37.5335 126.879 36.5622 126.896 35.5806C126.878 34.5983 127.094 33.6257 127.525 32.7427C127.911 31.9421 128.511 31.2636 129.258 30.7818C129.983 30.32 130.828 30.08 131.688 30.0913C132.866 30.088 134.002 30.5265 134.871 31.3203V27.4053C134.868 27.2473 134.897 27.0903 134.955 26.9433C135.013 26.7963 135.099 26.6624 135.21 26.5491C135.32 26.4347 135.453 26.3448 135.601 26.2853C135.748 26.2258 135.907 26.1981 136.066 26.2039C136.222 26.1997 136.378 26.2269 136.524 26.2838C136.67 26.3407 136.803 26.4262 136.915 26.5353ZM134.16 37.9627C134.688 37.2849 134.975 36.4502 134.975 35.5909C134.975 34.7317 134.688 33.897 134.16 33.2191C133.901 32.9195 133.58 32.6791 133.22 32.5143C132.859 32.3496 132.468 32.2643 132.071 32.2643C131.675 32.2643 131.284 32.3496 130.923 32.5143C130.563 32.6791 130.242 32.9195 129.983 33.2191C129.43 33.8848 129.14 34.7297 129.168 35.5944C129.137 36.4563 129.425 37.2995 129.976 37.9627C130.228 38.2658 130.545 38.5078 130.904 38.6705C131.262 38.8331 131.653 38.9122 132.047 38.9018C132.448 38.916 132.846 38.8388 133.212 38.6761C133.578 38.5134 133.902 38.2694 134.16 37.9627Z" fill="#CD8973"/>
<path d="M149.254 30.402C149.366 30.5167 149.453 30.6531 149.51 30.8027C149.567 30.9523 149.593 31.112 149.586 31.272V39.6475C149.59 39.8061 149.563 39.9641 149.506 40.1122C149.449 40.2603 149.364 40.3957 149.254 40.5106C149.143 40.6237 149.009 40.7127 148.862 40.772C148.715 40.8314 148.557 40.8599 148.398 40.8558C148.242 40.861 148.086 40.8336 147.941 40.7754C147.796 40.7171 147.665 40.6293 147.556 40.5175C147.337 40.2883 147.214 39.9848 147.21 39.6682C146.814 40.0984 146.334 40.4429 145.8 40.6804C145.265 40.9179 144.688 41.0434 144.103 41.0492C143.227 41.0635 142.366 40.8236 141.624 40.3587C140.875 39.878 140.272 39.2025 139.877 38.4046C139.433 37.5283 139.21 36.5562 139.228 35.5737C139.213 34.5908 139.43 33.6182 139.864 32.7358C140.25 31.9352 140.85 31.2567 141.597 30.7748C142.32 30.3132 143.162 30.0732 144.02 30.0844C145.2 30.0793 146.339 30.518 147.21 31.3134C147.207 31.1544 147.235 30.9962 147.293 30.8481C147.351 30.7 147.438 30.5648 147.549 30.4503C147.778 30.2312 148.084 30.109 148.401 30.109C148.719 30.109 149.024 30.2312 149.254 30.4503V30.402ZM146.492 37.9351C147.02 37.2572 147.307 36.4225 147.307 35.5633C147.307 34.7041 147.02 33.8694 146.492 33.1915C146.233 32.8976 145.914 32.6623 145.557 32.501C145.2 32.3398 144.813 32.2564 144.421 32.2564C144.029 32.2564 143.642 32.3398 143.284 32.501C142.927 32.6623 142.609 32.8976 142.349 33.1915C141.826 33.8713 141.542 34.7053 141.542 35.5633C141.542 36.4213 141.826 37.2553 142.349 37.9351C142.613 38.2301 142.936 38.4662 143.297 38.6278C143.658 38.7894 144.049 38.8729 144.445 38.8729C144.841 38.8729 145.232 38.7894 145.593 38.6278C145.954 38.4662 146.277 38.2301 146.541 37.9351H146.492Z" fill="#CD8973"/>
</svg>
