<svg width="22" height="22" viewBox="0 0 22 22" fill="none" xmlns="http://www.w3.org/2000/svg">
<path d="M21.6393 11.956C21.4305 12.3725 21.0927 12.7103 20.6762 12.919V12.929L3.53268 21.5008C3.28099 21.6266 3.00699 21.7016 2.72633 21.7214C2.44566 21.7413 2.16384 21.7057 1.89695 21.6166C1.63006 21.5275 1.38333 21.3867 1.17086 21.2023C0.958396 21.0178 0.784353 20.7933 0.658672 20.5416C0.507737 20.2409 0.430283 19.9087 0.432671 19.5723V2.4287C0.432506 2.14724 0.487777 1.8685 0.595334 1.60841C0.702891 1.34831 0.860626 1.11195 1.05953 0.912816C1.25843 0.713679 1.49461 0.55567 1.75458 0.447809C2.01455 0.339947 2.29322 0.284345 2.57468 0.28418C2.90719 0.284403 3.23512 0.361763 3.53268 0.510181L20.6762 9.08197C21.1848 9.33563 21.5719 9.7808 21.7525 10.3197C21.9331 10.8586 21.8923 11.4471 21.6393 11.956Z" fill="white"/>
</svg>
