<svg width="24" height="22" viewBox="0 0 24 22" fill="none" xmlns="http://www.w3.org/2000/svg">
<path d="M23.3192 8.31346C23.2445 8.08597 23.1032 7.88511 22.913 7.73593C22.7227 7.58675 22.492 7.49584 22.2495 7.47453L15.5013 6.87284L12.8329 0.740243C12.6361 0.290824 12.1881 0 11.6902 0C11.1924 0 10.7442 0.290869 10.5475 0.741364L7.87909 6.87288L1.12985 7.47453C0.887645 7.49631 0.657279 7.58742 0.467312 7.73655C0.277346 7.88568 0.136133 8.08627 0.0611814 8.31346C-0.0927575 8.77835 0.0493997 9.28821 0.424543 9.60962L5.52539 14.002L4.02126 20.5077C3.9112 20.986 4.10026 21.4805 4.50449 21.7674C4.72172 21.9215 4.97594 22 5.23227 22C5.45329 22 5.67248 21.9415 5.8693 21.8259L11.6902 18.4099L17.509 21.8259C17.9348 22.0774 18.4716 22.0544 18.8749 21.7674C19.0723 21.627 19.2234 21.4328 19.3093 21.2088C19.3952 20.9849 19.4122 20.741 19.3581 20.5077L17.854 14.002L22.9548 9.61051C23.1383 9.45316 23.2707 9.24633 23.3355 9.01574C23.4002 8.78514 23.3946 8.54094 23.3192 8.31346Z" fill="#CBCBCB"/>
</svg>
