<?xml version="1.0" encoding="UTF-8"?>
<svg xmlns="http://www.w3.org/2000/svg" xmlns:xlink="http://www.w3.org/1999/xlink" width="20px" height="20px" viewBox="0 0 20 20" version="1.1">
<g id="surface1">
<path style="fill:#CD8973;" d="M 17.410156 1.175781 L 15.648438 1.175781 L 15.648438 2.941406 C 15.648438 3.292969 15.351562 3.53125 15.058594 3.53125 C 14.765625 3.53125 14.46875 3.292969 14.46875 2.941406 L 14.46875 1.175781 L 5.058594 1.175781 L 5.058594 2.941406 C 5.058594 3.292969 4.765625 3.53125 4.46875 3.53125 C 4.175781 3.53125 3.882812 3.292969 3.882812 2.941406 L 3.882812 1.175781 L 2.117188 1.175781 C 1.234375 1.175781 0.589844 1.941406 0.589844 2.941406 L 0.589844 5.058594 L 19.410156 5.058594 L 19.410156 2.941406 C 19.410156 1.941406 18.351562 1.175781 17.410156 1.175781 Z M 0.589844 6.292969 L 0.589844 17.058594 C 0.589844 18.117188 1.234375 18.824219 2.175781 18.824219 L 17.46875 18.824219 C 18.410156 18.824219 19.46875 18.058594 19.46875 17.058594 L 19.46875 6.292969 Z M 5.824219 16.175781 L 4.410156 16.175781 C 4.175781 16.175781 3.941406 16 3.941406 15.707031 L 3.941406 14.234375 C 3.941406 14 4.117188 13.765625 4.410156 13.765625 L 5.882812 13.765625 C 6.117188 13.765625 6.351562 13.941406 6.351562 14.234375 L 6.351562 15.707031 C 6.292969 16 6.117188 16.175781 5.824219 16.175781 Z M 5.824219 10.882812 L 4.410156 10.882812 C 4.175781 10.882812 3.941406 10.707031 3.941406 10.410156 L 3.941406 8.941406 C 3.941406 8.707031 4.117188 8.46875 4.410156 8.46875 L 5.882812 8.46875 C 6.117188 8.46875 6.351562 8.648438 6.351562 8.941406 L 6.351562 10.410156 C 6.292969 10.707031 6.117188 10.882812 5.824219 10.882812 Z M 10.53125 16.175781 L 9.058594 16.175781 C 8.824219 16.175781 8.589844 16 8.589844 15.707031 L 8.589844 14.234375 C 8.589844 14 8.765625 13.765625 9.058594 13.765625 L 10.53125 13.765625 C 10.765625 13.765625 11 13.941406 11 14.234375 L 11 15.707031 C 11 16 10.824219 16.175781 10.53125 16.175781 Z M 10.53125 10.882812 L 9.058594 10.882812 C 8.824219 10.882812 8.589844 10.707031 8.589844 10.410156 L 8.589844 8.941406 C 8.589844 8.707031 8.765625 8.46875 9.058594 8.46875 L 10.53125 8.46875 C 10.765625 8.46875 11 8.648438 11 8.941406 L 11 10.410156 C 11 10.707031 10.824219 10.882812 10.53125 10.882812 Z M 15.234375 16.175781 L 13.765625 16.175781 C 13.53125 16.175781 13.292969 16 13.292969 15.707031 L 13.292969 14.234375 C 13.292969 14 13.46875 13.765625 13.765625 13.765625 L 15.234375 13.765625 C 15.46875 13.765625 15.707031 13.941406 15.707031 14.234375 L 15.707031 15.707031 C 15.707031 16 15.53125 16.175781 15.234375 16.175781 Z M 15.234375 10.882812 L 13.765625 10.882812 C 13.53125 10.882812 13.292969 10.707031 13.292969 10.410156 L 13.292969 8.941406 C 13.292969 8.707031 13.46875 8.46875 13.765625 8.46875 L 15.234375 8.46875 C 15.46875 8.46875 15.707031 8.648438 15.707031 8.941406 L 15.707031 10.410156 C 15.707031 10.707031 15.53125 10.882812 15.234375 10.882812 Z M 15.234375 10.882812 "/>
</g>
</svg>
